<svg class="lds-gear" width="200px"  height="200px"  xmlns="http://www.w3.org/2000/svg" xmlns:xlink="http://www.w3.org/1999/xlink" viewBox="0 0 100 100" preserveAspectRatio="xMidYMid" style="background: none;"><g transform="translate(50 50)">
<g transform="rotate(251.25)">
<animateTransform attributeName="transform" type="rotate" values="0;360" keyTimes="0;1" dur="3.2s" repeatCount="indefinite"></animateTransform><path d="M33.54101966249685 -10 L40.54101966249685 -10 L40.54101966249685 10 L33.54101966249685 10 A35 35 0 0 1 28.73079852819034 19.98852710763191 L28.73079852819034 19.98852710763191 L33.09522714120148 25.461347484908117 L17.458597491840887 37.931143522082785 L13.094168878829752 32.45832314480658 A35 35 0 0 1 2.2857001006723303 34.925285611570686 L2.2857001006723303 34.925285611570686 L0.72805356297813 41.749780996843455 L-18.770504680658334 37.29936231771717 L-17.212858142964134 30.474866932444407 A35 35 0 0 1 -25.880577122436982 23.562591704003857 L-25.880577122436982 23.562591704003857 L-32.18735919775391 26.599777877826764 L-40.865033980105075 8.580400519778394 L-34.55825190478814 5.5432143459554855 A35 35 0 0 1 -34.55825190478814 -5.543214345955477 L-34.55825190478814 -5.543214345955477 L-40.86503398010508 -8.580400519778383 L-32.18735919775392 -26.59977787782676 L-25.88057712243699 -23.562591704003854 A35 35 0 0 1 -17.212858142964155 -30.47486693244439 L-17.212858142964155 -30.47486693244439 L-18.770504680658355 -37.299362317717154 L0.7280535629781353 -41.74978099684345 L2.2857001006723374 -34.925285611570686 A35 35 0 0 1 13.094168878829729 -32.45832314480659 L13.094168878829729 -32.45832314480659 L17.458597491840862 -37.9311435220828 L33.09522714120148 -25.46134748490812 L28.73079852819034 -19.98852710763191 A35 35 0 0 1 33.541019662496836 -10.00000000000002 M0 -10A10 10 0 1 0 0 10 A10 10 0 1 0 0 -10" fill="#cccbc9"></path></g></g></svg>